<svg id="visual" viewBox="0 0 960 540" width="960" height="540" xmlns="http://www.w3.org/2000/svg" xmlns:xlink="http://www.w3.org/1999/xlink" version="1.1"><path d="M0 183L40 185.3C80 187.7 160 192.3 240 182.5C320 172.7 400 148.3 480 148.8C560 149.3 640 174.7 720 205.7C800 236.7 880 273.3 920 291.7L960 310L960 541L920 541C880 541 800 541 720 541C640 541 560 541 480 541C400 541 320 541 240 541C160 541 80 541 40 541L0 541Z" fill="#c77824"></path><path d="M0 272L40 275.3C80 278.7 160 285.3 240 277.7C320 270 400 248 480 257C560 266 640 306 720 315.7C800 325.3 880 304.7 920 294.3L960 284L960 541L920 541C880 541 800 541 720 541C640 541 560 541 480 541C400 541 320 541 240 541C160 541 80 541 40 541L0 541Z" fill="#d48b34"></path><path d="M0 276L40 299.2C80 322.3 160 368.7 240 373.7C320 378.7 400 342.3 480 323.7C560 305 640 304 720 316C800 328 880 353 920 365.5L960 378L960 541L920 541C880 541 800 541 720 541C640 541 560 541 480 541C400 541 320 541 240 541C160 541 80 541 40 541L0 541Z" fill="#e19e45"></path><path d="M0 454L40 445.5C80 437 160 420 240 406.8C320 393.7 400 384.3 480 387C560 389.7 640 404.3 720 408.8C800 413.3 880 407.7 920 404.8L960 402L960 541L920 541C880 541 800 541 720 541C640 541 560 541 480 541C400 541 320 541 240 541C160 541 80 541 40 541L0 541Z" fill="#eeb157"></path><path d="M0 467L40 463.8C80 460.7 160 454.3 240 454.2C320 454 400 460 480 459.2C560 458.3 640 450.7 720 445.3C800 440 880 437 920 435.5L960 434L960 541L920 541C880 541 800 541 720 541C640 541 560 541 480 541C400 541 320 541 240 541C160 541 80 541 40 541L0 541Z" fill="#fac569"></path></svg>