<svg id="visual" viewBox="0 0 960 540" width="960" height="540" xmlns="http://www.w3.org/2000/svg" xmlns:xlink="http://www.w3.org/1999/xlink" version="1.1"><path d="M0 421L22.8 425C45.7 429 91.3 437 137 442.5C182.7 448 228.3 451 274 433.2C319.7 415.3 365.3 376.7 411.2 372.7C457 368.7 503 399.3 548.8 400C594.7 400.7 640.3 371.3 686 360.2C731.7 349 777.3 356 823 362.3C868.7 368.7 914.3 374.3 937.2 377.2L960 380L960 541L937.2 541C914.3 541 868.7 541 823 541C777.3 541 731.7 541 686 541C640.3 541 594.7 541 548.8 541C503 541 457 541 411.2 541C365.3 541 319.7 541 274 541C228.3 541 182.7 541 137 541C91.3 541 45.7 541 22.8 541L0 541Z" fill="#FCAF3C" stroke-linecap="round" stroke-linejoin="miter"></path></svg>